<svg width="41" height="42" viewBox="0 0 41 42" fill="none" xmlns="http://www.w3.org/2000/svg">
<path id="Vector" d="M26.1545 15.2079C30.939 20.1141 30.8733 27.9799 26.1833 32.8109C26.1745 32.8208 26.1641 32.8314 26.1545 32.8413L20.7733 38.3538C16.027 43.2157 8.30519 43.2151 3.55967 38.3538C-1.18656 33.4926 -1.18656 25.5815 3.55967 20.7204L6.53105 17.6765C7.31902 16.8693 8.67603 17.4058 8.71671 18.5465C8.7686 20.0003 9.02309 21.4609 9.49266 22.8713C9.6517 23.3489 9.53807 23.8772 9.18973 24.234L8.14175 25.3075C5.89748 27.6065 5.82709 31.3499 8.04926 33.6714C10.2934 36.0158 13.9819 36.0297 16.2433 33.7133L21.6245 28.2016C23.882 25.8891 23.8725 22.1512 21.6245 19.8484C21.3281 19.5453 21.0296 19.3099 20.7964 19.1454C20.6314 19.0294 20.4952 18.8755 20.3987 18.6959C20.3021 18.5164 20.2478 18.3162 20.2401 18.1114C20.2084 17.2445 20.5082 16.3513 21.1769 15.6663L22.8628 13.9392C23.3049 13.4863 23.9985 13.4307 24.5112 13.7972C25.0983 14.2171 25.6482 14.6892 26.1545 15.2079ZM37.4403 3.64624C32.6948 -1.21509 24.973 -1.21574 20.2267 3.64624L14.8455 9.15873C14.8359 9.16857 14.8255 9.17924 14.8167 9.18908C10.1268 14.0201 10.0611 21.8859 14.8455 26.7921C15.3518 27.3108 15.9017 27.7828 16.4888 28.2027C17.0014 28.5693 17.6951 28.5136 18.1371 28.0607L19.8231 26.3336C20.4917 25.6486 20.7915 24.7554 20.7598 23.8886C20.7522 23.6837 20.6979 23.4835 20.6013 23.304C20.5047 23.1245 20.3685 22.9705 20.2035 22.8545C19.9703 22.69 19.6718 22.4546 19.3754 22.1516C17.1274 19.8487 17.1179 16.1109 19.3754 13.7983L24.7567 8.28666C27.018 5.97018 30.7065 5.98413 32.9507 8.32849C35.1728 10.65 35.1025 14.3934 32.8582 16.6924L31.8102 17.7659C31.4619 18.1228 31.3482 18.651 31.5073 19.1286C31.9768 20.5391 32.2313 21.9996 32.2832 23.4534C32.324 24.5941 33.6809 25.1306 34.4689 24.3234L37.4403 21.2796C42.1866 16.4185 42.1866 8.5074 37.4403 3.64624Z" fill="#FF854D"/>
</svg>
