<svg width="57" height="45" viewBox="0 0 57 45" fill="none" xmlns="http://www.w3.org/2000/svg">
<path id="Vector" d="M27.7443 11.6742L9.50075 26.9287V43.3927C9.50075 43.819 9.66755 44.2278 9.96446 44.5292C10.2614 44.8307 10.6641 45 11.084 45L22.1724 44.9709C22.5909 44.9687 22.9916 44.7985 23.2868 44.4973C23.582 44.1961 23.7477 43.7884 23.7477 43.3635V33.7487C23.7477 33.3225 23.9145 32.9136 24.2114 32.6122C24.5083 32.3108 24.911 32.1414 25.3309 32.1414H31.6637C32.0836 32.1414 32.4863 32.3108 32.7832 32.6122C33.0801 32.9136 33.2469 33.3225 33.2469 33.7487V43.3565C33.2463 43.568 33.2868 43.7776 33.366 43.9732C33.4453 44.1687 33.5618 44.3465 33.7089 44.4963C33.856 44.6461 34.0307 44.7649 34.2231 44.846C34.4155 44.9271 34.6218 44.9689 34.8302 44.9689L45.9146 45C46.3345 45 46.7372 44.8307 47.0341 44.5292C47.331 44.2278 47.4978 43.819 47.4978 43.3927V26.9176L29.2582 11.6742C29.0438 11.4987 28.7767 11.403 28.5013 11.403C28.2258 11.403 27.9587 11.4987 27.7443 11.6742ZM56.5617 22.0424L48.2894 15.1199V1.20549C48.2894 0.885775 48.1643 0.579154 47.9416 0.353081C47.719 0.127007 47.4169 0 47.102 0H41.5608C41.2459 0 40.9438 0.127007 40.7212 0.353081C40.4985 0.579154 40.3734 0.885775 40.3734 1.20549V8.49972L31.5143 1.10001C30.6641 0.389755 29.5973 0.00141981 28.4963 0.00141981C27.3953 0.00141981 26.3285 0.389755 25.4783 1.10001L0.430929 22.0424C0.310692 22.1433 0.211214 22.2673 0.138181 22.4072C0.065147 22.5471 0.0199888 22.7003 0.0052861 22.858C-0.0094166 23.0156 0.00662441 23.1747 0.0524926 23.3261C0.0983607 23.4774 0.173157 23.6181 0.272608 23.7401L2.79585 26.8543C2.89503 26.9768 3.01702 27.0781 3.15484 27.1527C3.29266 27.2272 3.4436 27.2733 3.59903 27.2886C3.75445 27.3038 3.9113 27.2877 4.0606 27.2413C4.2099 27.1949 4.34872 27.119 4.46911 27.0181L27.7443 7.55542C27.9587 7.37995 28.2258 7.28426 28.5013 7.28426C28.7767 7.28426 29.0438 7.37995 29.2582 7.55542L52.5344 27.0181C52.6546 27.119 52.7932 27.195 52.9423 27.2416C53.0914 27.2881 53.2481 27.3044 53.4034 27.2895C53.5587 27.2745 53.7095 27.2287 53.8474 27.1546C53.9852 27.0804 54.1073 26.9794 54.2067 26.8573L56.7299 23.7432C56.8293 23.6204 56.9038 23.479 56.9491 23.327C56.9944 23.175 57.0097 23.0153 56.9941 22.8573C56.9784 22.6992 56.9322 22.5459 56.858 22.406C56.7838 22.2662 56.6831 22.1426 56.5617 22.0424Z" fill="white"/>
</svg>
