<svg width="45" height="51" viewBox="0 0 45 51" fill="none" xmlns="http://www.w3.org/2000/svg">
<path id="Vector" d="M40.1786 25.5H15.2679V15.2303C15.2679 11.2858 18.452 8.00868 22.4297 7.96883C26.4475 7.92899 29.7321 11.1663 29.7321 15.1407V16.7344C29.7321 18.0592 30.8069 19.1251 32.1429 19.1251H35.3571C36.6931 19.1251 37.7679 18.0592 37.7679 16.7344V15.1407C37.7679 6.77352 30.8873 -0.0297847 22.4498 9.80671e-05C14.0123 0.0299808 7.23214 6.92294 7.23214 15.2901V25.5H4.82143C2.1596 25.5 0 27.6416 0 30.2813V46.2188C0 48.8584 2.1596 51 4.82143 51H40.1786C42.8404 51 45 48.8584 45 46.2188V30.2813C45 27.6416 42.8404 25.5 40.1786 25.5ZM26.5179 40.6406C26.5179 42.842 24.7199 44.625 22.5 44.625C20.2801 44.625 18.4821 42.842 18.4821 40.6406V35.8594C18.4821 33.658 20.2801 31.875 22.5 31.875C24.7199 31.875 26.5179 33.658 26.5179 35.8594V40.6406Z" fill="white"/>
</svg>
