<svg width="49" height="43" viewBox="0 0 49 43" fill="none" xmlns="http://www.w3.org/2000/svg">
<path id="Vector" d="M24.5 0C18.58 0 13.7813 4.73756 13.7813 10.582C13.7813 15.307 20.7867 23.9187 23.4707 27.0446C24.0143 27.6779 24.9866 27.6779 25.5293 27.0446C28.2133 23.9187 35.2188 15.307 35.2188 10.582C35.2188 4.73756 30.42 0 24.5 0ZM24.5 14.1094C22.5264 14.1094 20.9271 12.5305 20.9271 10.582C20.9271 8.63359 22.5264 7.05469 24.5 7.05469C26.4736 7.05469 28.0729 8.63359 28.0729 10.582C28.0729 12.5305 26.4736 14.1094 24.5 14.1094ZM1.7116 18.1364C1.20644 18.3359 0.773392 18.6802 0.468315 19.125C0.163239 19.5697 0.000120986 20.0945 0 20.6316L0 41.6546C0 42.6053 0.972344 43.2553 1.86642 42.9026L13.6111 37.625V18.0499C12.8591 16.7079 12.244 15.4011 11.8034 14.1514L1.7116 18.1364ZM24.5 30.2067C23.3031 30.2067 22.1708 29.6876 21.3941 28.7823C19.7217 26.8338 17.9428 24.615 16.3333 22.339V37.6242L32.6667 42.9992V22.3398C31.0572 24.615 29.2792 26.8347 27.6059 28.7831C26.8292 29.6876 25.6969 30.2067 24.5 30.2067ZM47.1336 13.5349L35.3889 18.8125V43L47.2884 38.3011C47.7936 38.1017 48.2267 37.7574 48.5318 37.3126C48.8369 36.8679 49 36.3431 49 35.8059V14.7829C49 13.8322 48.0277 13.1822 47.1336 13.5349Z" fill="#FF854D"/>
</svg>
