<svg width="19" height="18" viewBox="0 0 19 18" fill="none" xmlns="http://www.w3.org/2000/svg">
<path id="Vector" d="M4.22394 17.7458H0.311699V5.89719H4.22394V17.7458ZM2.26571 4.28093C1.01471 4.28093 0 3.30642 0 2.12987C8.95418e-09 1.56474 0.238708 1.02275 0.663612 0.623135C1.08852 0.223523 1.66481 -0.000976563 2.26571 -0.000976562C2.86662 -0.000976563 3.44291 0.223523 3.86782 0.623135C4.29272 1.02275 4.53143 1.56474 4.53143 2.12987C4.53143 3.30642 3.5163 4.28093 2.26571 4.28093ZM18.8662 17.7458H14.9624V11.978C14.9624 10.6034 14.9329 8.84053 12.9283 8.84053C10.8943 8.84053 10.5826 10.334 10.5826 11.8789V17.7458H6.67457V5.89719H10.4267V7.51345H10.4815C11.0038 6.58252 12.2797 5.60008 14.1831 5.60008C18.1426 5.60008 18.8704 8.05221 18.8704 11.2372V17.7458H18.8662Z" fill="white"/>
</svg>
