<svg width="47" height="47" viewBox="0 0 47 47" fill="none" xmlns="http://www.w3.org/2000/svg">
<path id="Vector" d="M47 42.5938C47 45.0273 45.0273 47 42.5938 47H4.40625C1.97271 47 0 45.0273 0 42.5938V18.4258C8.11681e-06 17.7577 0.151969 17.0983 0.444387 16.4975C0.736805 15.8967 1.16202 15.3703 1.68787 14.9581C3.9748 13.1654 5.86472 11.7117 16.7609 3.8038C18.3054 2.67773 21.37 -0.0318392 23.5 0.000289651C25.6295 -0.0322064 28.6953 2.67819 30.2391 3.80371C41.1342 11.7108 43.0267 13.1665 45.3121 14.9581C45.838 15.3703 46.2632 15.8967 46.5556 16.4975C46.848 17.0983 47 17.7577 47 18.4258V42.5938ZM40.9721 24.546C40.7368 24.2038 40.2652 24.1242 39.9312 24.371C37.8341 25.9199 34.8399 28.1076 30.2391 31.4466C28.6946 32.5726 25.63 35.2819 23.5 35.2497C21.3693 35.2813 18.3081 32.5745 16.7609 31.4466C12.1606 28.1079 9.16619 25.92 7.06882 24.371C6.73477 24.1242 6.26321 24.2038 6.02793 24.546L5.19515 25.7574C5.08721 25.9143 5.04447 26.107 5.07597 26.2949C5.10747 26.4827 5.21074 26.651 5.36397 26.7641C7.46492 28.3154 10.4545 30.4993 15.0305 33.8204C16.8915 35.1772 20.2192 38.2094 23.5 38.1874C26.7794 38.2096 30.1058 35.1791 31.9695 33.8204C36.5455 30.4992 39.5352 28.3153 41.6359 26.7641C41.7892 26.651 41.8924 26.4827 41.9239 26.2949C41.9554 26.107 41.9127 25.9143 41.8048 25.7574L40.9721 24.546Z" fill="#FF854D"/>
</svg>
