<svg width="50" height="57" viewBox="0 0 50 57" fill="none" xmlns="http://www.w3.org/2000/svg">
<path id="Vector" d="M0 51.6562C0 54.6064 2.39955 57 5.35714 57H44.6429C47.6004 57 50 54.6064 50 51.6562V21.375H0V51.6562ZM35.7143 29.8359C35.7143 29.1012 36.317 28.5 37.0536 28.5H41.5179C42.2545 28.5 42.8571 29.1012 42.8571 29.8359V34.2891C42.8571 35.0238 42.2545 35.625 41.5179 35.625H37.0536C36.317 35.625 35.7143 35.0238 35.7143 34.2891V29.8359ZM35.7143 44.0859C35.7143 43.3512 36.317 42.75 37.0536 42.75H41.5179C42.2545 42.75 42.8571 43.3512 42.8571 44.0859V48.5391C42.8571 49.2738 42.2545 49.875 41.5179 49.875H37.0536C36.317 49.875 35.7143 49.2738 35.7143 48.5391V44.0859ZM21.4286 29.8359C21.4286 29.1012 22.0312 28.5 22.7679 28.5H27.2321C27.9688 28.5 28.5714 29.1012 28.5714 29.8359V34.2891C28.5714 35.0238 27.9688 35.625 27.2321 35.625H22.7679C22.0312 35.625 21.4286 35.0238 21.4286 34.2891V29.8359ZM21.4286 44.0859C21.4286 43.3512 22.0312 42.75 22.7679 42.75H27.2321C27.9688 42.75 28.5714 43.3512 28.5714 44.0859V48.5391C28.5714 49.2738 27.9688 49.875 27.2321 49.875H22.7679C22.0312 49.875 21.4286 49.2738 21.4286 48.5391V44.0859ZM7.14286 29.8359C7.14286 29.1012 7.74554 28.5 8.48214 28.5H12.9464C13.683 28.5 14.2857 29.1012 14.2857 29.8359V34.2891C14.2857 35.0238 13.683 35.625 12.9464 35.625H8.48214C7.74554 35.625 7.14286 35.0238 7.14286 34.2891V29.8359ZM7.14286 44.0859C7.14286 43.3512 7.74554 42.75 8.48214 42.75H12.9464C13.683 42.75 14.2857 43.3512 14.2857 44.0859V48.5391C14.2857 49.2738 13.683 49.875 12.9464 49.875H8.48214C7.74554 49.875 7.14286 49.2738 7.14286 48.5391V44.0859ZM44.6429 7.125H39.2857V1.78125C39.2857 0.801562 38.4821 0 37.5 0H33.9286C32.9464 0 32.1429 0.801562 32.1429 1.78125V7.125H17.8571V1.78125C17.8571 0.801562 17.0536 0 16.0714 0H12.5C11.5179 0 10.7143 0.801562 10.7143 1.78125V7.125H5.35714C2.39955 7.125 0 9.51855 0 12.4688V17.8125H50V12.4688C50 9.51855 47.6004 7.125 44.6429 7.125Z" fill="white"/>
</svg>
