<svg width="30" height="48" viewBox="0 0 30 48" fill="none" xmlns="http://www.w3.org/2000/svg">
<path id="Vector" d="M25.5 0H4.5C2.01562 0 0 2.01562 0 4.5V43.5C0 45.9844 2.01562 48 4.5 48H25.5C27.9844 48 30 45.9844 30 43.5V4.5C30 2.01562 27.9844 0 25.5 0ZM15 45C13.3406 45 12 43.6594 12 42C12 40.3406 13.3406 39 15 39C16.6594 39 18 40.3406 18 42C18 43.6594 16.6594 45 15 45ZM25.5 34.875C25.5 35.4938 24.9937 36 24.375 36H5.625C5.00625 36 4.5 35.4938 4.5 34.875V5.625C4.5 5.00625 5.00625 4.5 5.625 4.5H24.375C24.9937 4.5 25.5 5.00625 25.5 5.625V34.875Z" fill="#FF854D"/>
</svg>
