<svg width="19" height="15" viewBox="0 0 19 15" fill="none" xmlns="http://www.w3.org/2000/svg">
<path id="Vector" d="M16.9017 3.6095C16.9137 3.76688 16.9137 3.92429 16.9137 4.08166C16.9137 8.88182 13.0289 14.4127 5.92876 14.4127C3.74132 14.4127 1.7093 13.8169 0 12.7827C0.310793 12.8164 0.609591 12.8277 0.932341 12.8277C2.73724 12.8277 4.39875 12.2543 5.72555 11.2763C4.0282 11.2426 2.60577 10.1971 2.11569 8.75818C2.35477 8.79189 2.59381 8.81438 2.84486 8.81438C3.19148 8.81438 3.53815 8.76939 3.86086 8.69074C2.09181 8.35346 0.764969 6.89207 0.764969 5.12713V5.08218C1.27893 5.35198 1.87664 5.5206 2.51011 5.54306C1.47019 4.89103 0.788884 3.77813 0.788884 2.51905C0.788884 1.84457 0.980099 1.22628 1.31481 0.686677C3.21536 2.89003 6.07218 4.32894 9.27558 4.48635C9.21583 4.21655 9.17996 3.93554 9.17996 3.65449C9.17996 1.65346 10.9012 0.0234375 13.0408 0.0234375C14.1525 0.0234375 15.1565 0.46186 15.8618 1.17008C16.7343 1.01271 17.571 0.709169 18.3122 0.293239C18.0252 1.13638 17.4157 1.8446 16.6148 2.29424C17.3918 2.21558 18.1448 2.01319 18.8381 1.73218C18.3122 2.45161 17.6548 3.09236 16.9017 3.6095Z" fill="white"/>
</svg>
